<?xml version="1.0" encoding="utf-8"?>
<!-- Generator: Adobe Illustrator 24.0.2, SVG Export Plug-In . SVG Version: 6.00 Build 0)  -->
<svg version="1.1" id="Layer_1" xmlns="http://www.w3.org/2000/svg" xmlns:xlink="http://www.w3.org/1999/xlink" x="0px" y="0px"
	 viewBox="0 0 425.2 425.2" style="enable-background:new 0 0 425.2 425.2;" xml:space="preserve">
<style type="text/css">
	.st0{display:none;}
	.st1{fill:#2F2BAD;}
</style>
<path class="st0" d="M212.7,97.6c-63.6,0-114.9,51.3-114.9,114.9s51.3,114.9,114.9,114.9s114.9-51.3,114.9-114.9
	S276.3,97.6,212.7,97.6z M212.7,287.2c-41.1,0-74.7-33.5-74.7-74.7s33.5-74.7,74.7-74.7s74.7,33.5,74.7,74.7
	S253.8,287.2,212.7,287.2L212.7,287.2z M359.1,92.9c0,14.9-12,26.8-26.8,26.8c-14.9,0-26.8-12-26.8-26.8s12-26.8,26.8-26.8
	S359.1,78.1,359.1,92.9z M435.2,120.1c-1.7-35.9-9.9-67.7-36.2-93.9C372.8,0,341-8.2,305.1-10c-37-2.1-147.9-2.1-184.9,0
	C84.4-8.3,52.6-0.1,26.3,26.1S-8.1,84.1-9.9,120c-2.1,37-2.1,147.9,0,184.9c1.7,35.9,9.9,67.7,36.2,93.9s58,34.4,93.9,36.2
	c37,2.1,147.9,2.1,184.9,0c35.9-1.7,67.7-9.9,93.9-36.2c26.2-26.2,34.4-58,36.2-93.9C437.3,267.9,437.3,157.1,435.2,120.1
	L435.2,120.1z M387.4,344.6c-7.8,19.6-22.9,34.7-42.6,42.6c-29.5,11.7-99.5,9-132.1,9s-102.7,2.6-132.1-9
	C61,379.4,45.9,364.3,38,344.6c-11.7-29.5-9-99.5-9-132.1s-2.6-102.7,9-132.1c7.8-19.6,22.9-34.7,42.6-42.6
	c29.5-11.7,99.5-9,132.1-9s102.7-2.6,132.1,9c19.6,7.8,34.7,22.9,42.6,42.6c11.7,29.5,9,99.5,9,132.1S399.1,315.2,387.4,344.6z"/>
<circle class="st1" cx="212.6" cy="212.6" r="166"/>
</svg>
