<?xml version="1.0" encoding="utf-8"?>
<!-- Generator: Adobe Illustrator 24.0.2, SVG Export Plug-In . SVG Version: 6.00 Build 0)  -->
<svg version="1.1" id="Layer_1" xmlns="http://www.w3.org/2000/svg" xmlns:xlink="http://www.w3.org/1999/xlink" x="0px" y="0px"
	 viewBox="0 0 448 512" style="enable-background:new 0 0 448 512;" xml:space="preserve">
<style type="text/css">
	.st0{display:none;}
</style>
<path class="st0" d="M224.1,141c-63.6,0-114.9,51.3-114.9,114.9s51.3,114.9,114.9,114.9S339,319.5,339,255.9S287.7,141,224.1,141z
	 M224.1,330.6c-41.1,0-74.7-33.5-74.7-74.7s33.5-74.7,74.7-74.7s74.7,33.5,74.7,74.7S265.2,330.6,224.1,330.6L224.1,330.6z
	 M370.5,136.3c0,14.9-12,26.8-26.8,26.8c-14.9,0-26.8-12-26.8-26.8s12-26.8,26.8-26.8S370.5,121.5,370.5,136.3z M446.6,163.5
	c-1.7-35.9-9.9-67.7-36.2-93.9c-26.2-26.2-58-34.4-93.9-36.2c-37-2.1-147.9-2.1-184.9,0C95.8,35.1,64,43.3,37.7,69.5
	s-34.4,58-36.2,93.9c-2.1,37-2.1,147.9,0,184.9c1.7,35.9,9.9,67.7,36.2,93.9s58,34.4,93.9,36.2c37,2.1,147.9,2.1,184.9,0
	c35.9-1.7,67.7-9.9,93.9-36.2c26.2-26.2,34.4-58,36.2-93.9C448.7,311.3,448.7,200.5,446.6,163.5L446.6,163.5z M398.8,388
	c-7.8,19.6-22.9,34.7-42.6,42.6c-29.5,11.7-99.5,9-132.1,9s-102.7,2.6-132.1-9c-19.6-7.8-34.7-22.9-42.6-42.6
	c-11.7-29.5-9-99.5-9-132.1s-2.6-102.7,9-132.1c7.8-19.6,22.9-34.7,42.6-42.6c29.5-11.7,99.5-9,132.1-9s102.7-2.6,132.1,9
	c19.6,7.8,34.7,22.9,42.6,42.6c11.7,29.5,9,99.5,9,132.1S410.5,358.6,398.8,388z"/>
<path d="M224,479.8c-41.3,0-77.9-0.6-95.5-1.6c-41.8-2.1-69.3-12.6-91.8-35c-22.6-22.5-33-49.9-35-91.7c-2.2-38.5-2.2-152.8,0-191.2
	c2.1-42,12.6-69.4,35-91.8c22.3-22.2,50.6-33,91.7-34.9c17.7-1,54.3-1.6,95.6-1.6c41.3,0,77.9,0.6,95.5,1.6
	c41.9,2.1,69.3,12.6,91.8,35c22.6,22.5,33,49.9,35,91.7c2.2,38.5,2.2,152.7,0,191.1c-2.1,41.9-12.6,69.3-35,91.8
	c-22.5,22.6-49.9,33-91.7,35C301.9,479.2,265.3,479.8,224,479.8z M224.1,455.5c4.8,0,10.5,0.1,16.5,0.1c7.4,0.1,15.9,0.2,24.7,0.2
	c34.2,0,76.4-1.2,99.3-10.3c22.7-9.1,40.2-26.6,49.2-49.2c11.1-27.8,10.5-85.7,10.1-124c-0.1-6-0.1-11.7-0.1-16.5
	c0-4.8,0.1-10.5,0.1-16.5c0.4-38.3,1-96.1-10.1-124c-9.1-22.7-26.6-40.2-49.2-49.2c-23-9.1-65.7-10.2-100.3-10.2
	c-8.6,0-16.8,0.1-24.1,0.1c-5.9,0.1-11.5,0.1-16.2,0.1c-4.8,0-10.5-0.1-16.5-0.1c-7.4-0.1-15.9-0.2-24.7-0.2
	c-34.2,0-76.4,1.2-99.3,10.3c-22.7,9.1-40.2,26.6-49.2,49.2c-11,27.9-10.5,85.9-10.1,124.3c0.1,5.9,0.1,11.5,0.1,16.2
	c0,4.8-0.1,10.5-0.1,16.5c-0.4,38.3-1,96.1,10.1,124c9.1,22.7,26.6,40.2,49.2,49.2c23,9.1,65.7,10.2,100.3,10.2
	c8.6,0,16.8-0.1,24.1-0.1C213.8,455.6,219.4,455.5,224.1,455.5z M224.1,366.4c-29.6,0-57.4-11.5-78.2-32.3
	c-20.8-20.8-32.3-48.6-32.3-78.2c0-29.6,11.5-57.4,32.3-78.2s48.6-32.3,78.2-32.3c29.6,0,57.4,11.5,78.2,32.3
	c20.8,20.8,32.3,48.6,32.3,78.2c0,29.6-11.5,57.4-32.3,78.2C281.4,354.9,253.6,366.4,224.1,366.4z M224.1,169.4
	c-47.7,0-86.4,38.8-86.4,86.4c0,47.7,38.8,86.4,86.4,86.4c47.7,0,86.4-38.8,86.4-86.4C310.5,208.2,271.7,169.4,224.1,169.4z
	 M348.3,150.6c-10.5,0-19-8.5-19-19s8.5-19,19-19c10.5,0,19,8.5,19,19S358.8,150.6,348.3,150.6z"/>
</svg>
